<?xml version="1.0" standalone="no"?>
<!DOCTYPE svg PUBLIC "-//W3C//DTD SVG 20010904//EN"
 "http://www.w3.org/TR/2001/REC-SVG-20010904/DTD/svg10.dtd">
<svg version="1.0" xmlns="http://www.w3.org/2000/svg"
 width="74.000000pt" height="74.000000pt" viewBox="0 0 74.000000 74.000000"
 preserveAspectRatio="xMidYMid meet">
<metadata>
Created by potrace 1.14, written by Peter Selinger 2001-2017
</metadata>
<g transform="translate(0.000000,74.000000) scale(0.100000,-0.100000)"
fill="#000000" stroke="none">
<path d="M137 733 c-2 -5 -4 -52 -3 -105 1 -93 2 -98 31 -128 l30 -31 1 -229
c0 -126 3 -233 7 -237 23 -22 28 28 25 251 l-3 238 -29 23 c-29 23 -30 27 -32
112 -1 48 -2 94 -3 101 -1 13 -17 16 -24 5z"/>
<path d="M192 648 c2 -75 6 -93 18 -93 12 0 15 17 15 90 0 78 -2 90 -18 93
-16 3 -18 -5 -15 -90z"/>
<path d="M249 721 c0 -12 -1 -37 -1 -56 0 -102 2 -115 17 -115 8 0 15 8 16 18
6 140 4 167 -14 170 -11 2 -17 -3 -18 -17z"/>
<path d="M310 646 c0 -91 -1 -96 -30 -128 -19 -20 -30 -44 -31 -63 0 -36 0
-393 1 -417 0 -23 36 -41 64 -34 14 3 38 29 59 63 20 32 48 73 64 91 l28 33
98 -35 c54 -20 102 -36 107 -36 17 0 50 39 50 58 0 10 -29 56 -65 102 -36 47
-65 88 -65 91 0 4 25 39 56 79 75 97 81 113 60 145 -21 33 -36 32 -153 -10
-53 -19 -100 -31 -103 -27 -3 4 -20 29 -38 56 -19 26 -35 46 -37 44 -3 -3 -14
-82 -14 -108 -1 -9 -14 -30 -30 -47 l-28 -31 1 -193 c1 -134 4 -193 12 -196 7
-2 33 28 59 67 26 40 57 76 69 81 16 7 45 1 120 -26 54 -19 102 -32 107 -29 5
3 9 0 9 -5 0 -15 -4 -15 -115 23 -75 25 -105 31 -121 24 -12 -6 -45 -48 -75
-94 -81 -125 -83 -120 -87 132 l-2 211 30 31 c30 32 33 44 32 152 -1 81 -2 90
-17 90 -12 0 -15 -17 -15 -94z m310 -170 c-34 -47 -64 -86 -67 -86 -6 0 5 18
65 103 30 42 57 75 60 73 2 -3 -24 -43 -58 -90z"/>
<path d="M80 432 c-50 -19 -73 -59 -54 -90 12 -18 111 -59 120 -49 3 3 6 40 7
81 2 86 2 86 -73 58z"/>
</g>
</svg>
