<svg width="10" height="12" viewBox="0 0 10 12" fill="none" xmlns="http://www.w3.org/2000/svg">
<path d="M1.66666 11.3333V10H0.999995C0.811106 10 0.652773 9.93611 0.524995 9.80833C0.397217 9.68056 0.333328 9.52222 0.333328 9.33333C0.333328 9.14444 0.397217 8.98611 0.524995 8.85833C0.652773 8.73056 0.811106 8.66667 0.999995 8.66667H1.66666V7.33333H0.999995C0.811106 7.33333 0.652773 7.26944 0.524995 7.14167C0.397217 7.01389 0.333328 6.85556 0.333328 6.66667C0.333328 6.47778 0.397217 6.31944 0.524995 6.19167C0.652773 6.06389 0.811106 6 0.999995 6H1.66666V0.666667C1.66666 0.477778 1.73055 0.319444 1.85833 0.191667C1.98611 0.0638889 2.14444 0 2.33333 0H5.99999C7.02222 0 7.88888 0.355556 8.59999 1.06667C9.31111 1.77778 9.66666 2.64444 9.66666 3.66667C9.66666 4.68889 9.31111 5.55556 8.59999 6.26667C7.88888 6.97778 7.02222 7.33333 5.99999 7.33333H2.99999V8.66667H4.99999C5.18888 8.66667 5.34722 8.73056 5.47499 8.85833C5.60277 8.98611 5.66666 9.14444 5.66666 9.33333C5.66666 9.52222 5.60277 9.68056 5.47499 9.80833C5.34722 9.93611 5.18888 10 4.99999 10H2.99999V11.3333C2.99999 11.5222 2.93611 11.6806 2.80833 11.8083C2.68055 11.9361 2.52222 12 2.33333 12C2.14444 12 1.98611 11.9361 1.85833 11.8083C1.73055 11.6806 1.66666 11.5222 1.66666 11.3333ZM2.99999 6H5.99999C6.64444 6 7.19444 5.77222 7.64999 5.31667C8.10555 4.86111 8.33333 4.31111 8.33333 3.66667C8.33333 3.02222 8.10555 2.47222 7.64999 2.01667C7.19444 1.56111 6.64444 1.33333 5.99999 1.33333H2.99999V6Z" fill="#AB9C9E"/>
</svg>
