<svg width="18" height="17" viewBox="0 0 18 17" fill="none" xmlns="http://www.w3.org/2000/svg">
<path d="M9 12.3333C9.66667 12.3333 10.2604 12.1354 10.7812 11.7395C11.3021 11.3437 11.6806 10.8333 11.9167 10.2083H6.08333C6.31944 10.8333 6.69792 11.3437 7.21875 11.7395C7.73958 12.1354 8.33333 12.3333 9 12.3333ZM6.91667 8.99996C7.26389 8.99996 7.55903 8.87843 7.80208 8.63538C8.04514 8.39232 8.16667 8.09718 8.16667 7.74996C8.16667 7.40274 8.04514 7.1076 7.80208 6.86454C7.55903 6.62149 7.26389 6.49996 6.91667 6.49996C6.56944 6.49996 6.27431 6.62149 6.03125 6.86454C5.78819 7.1076 5.66667 7.40274 5.66667 7.74996C5.66667 8.09718 5.78819 8.39232 6.03125 8.63538C6.27431 8.87843 6.56944 8.99996 6.91667 8.99996ZM11.0833 8.99996C11.4306 8.99996 11.7257 8.87843 11.9688 8.63538C12.2118 8.39232 12.3333 8.09718 12.3333 7.74996C12.3333 7.40274 12.2118 7.1076 11.9688 6.86454C11.7257 6.62149 11.4306 6.49996 11.0833 6.49996C10.7361 6.49996 10.441 6.62149 10.1979 6.86454C9.95486 7.1076 9.83333 7.40274 9.83333 7.74996C9.83333 8.09718 9.95486 8.39232 10.1979 8.63538C10.441 8.87843 10.7361 8.99996 11.0833 8.99996ZM5.35417 4.33329L7.6875 1.31246C7.85417 1.09024 8.05208 0.927043 8.28125 0.822876C8.51042 0.718709 8.75 0.666626 9 0.666626C9.25 0.666626 9.48958 0.718709 9.71875 0.822876C9.94792 0.927043 10.1458 1.09024 10.3125 1.31246L12.6458 4.33329L16.1875 5.52079C16.5486 5.6319 16.8333 5.83676 17.0417 6.13538C17.25 6.43399 17.3542 6.76385 17.3542 7.12496C17.3542 7.29163 17.3299 7.45829 17.2812 7.62496C17.2326 7.79163 17.1528 7.95135 17.0417 8.10413L14.75 11.3541L14.8333 14.7708C14.8472 15.2569 14.6875 15.6666 14.3542 16C14.0208 16.3333 13.6319 16.5 13.1875 16.5C13.1597 16.5 13.0069 16.4791 12.7292 16.4375L9 15.3958L5.27083 16.4375C5.20139 16.4652 5.125 16.4826 5.04167 16.4895C4.95833 16.4965 4.88194 16.5 4.8125 16.5C4.36806 16.5 3.97917 16.3333 3.64583 16C3.3125 15.6666 3.15278 15.2569 3.16667 14.7708L3.25 11.3333L0.979166 8.10413C0.868055 7.95135 0.788194 7.79163 0.739583 7.62496C0.690972 7.45829 0.666666 7.29163 0.666666 7.12496C0.666666 6.77774 0.76736 6.45482 0.968749 6.15621C1.17014 5.8576 1.45139 5.64579 1.8125 5.52079L5.35417 4.33329Z" fill="#A72536"/>
</svg>
